<svg xmlns="http://www.w3.org/2000/svg" viewBox="0 0 1440 810" width="1440" height="810">
  <defs>

    <!-- Background gradient -->
    <linearGradient id="bgGrad" x1="0" y1="0" x2="0" y2="1">
      <stop offset="0%" stop-color="#04060a"/>
      <stop offset="100%" stop-color="#0d1117"/>
    </linearGradient>

    <!-- Left beam gradient -->
    <linearGradient id="leftBeamGrad" x1="432" y1="125" x2="350" y2="810" gradientUnits="userSpaceOnUse">
      <stop offset="0%" stop-color="#ffe8b0" stop-opacity="0.85"/>
      <stop offset="40%" stop-color="#e8a838" stop-opacity="0.40"/>
      <stop offset="100%" stop-color="#0d1117" stop-opacity="0"/>
    </linearGradient>

    <!-- Right beam gradient -->
    <linearGradient id="rightBeamGrad" x1="1008" y1="125" x2="1090" y2="810" gradientUnits="userSpaceOnUse">
      <stop offset="0%" stop-color="#ffe8b0" stop-opacity="0.85"/>
      <stop offset="40%" stop-color="#e8a838" stop-opacity="0.40"/>
      <stop offset="100%" stop-color="#0d1117" stop-opacity="0"/>
    </linearGradient>

    <!-- Ground pools -->
    <radialGradient id="leftPool" cx="50%" cy="30%" r="50%">
      <stop offset="0%" stop-color="#e8a838" stop-opacity="0.45"/>
      <stop offset="100%" stop-color="#0d1117" stop-opacity="0"/>
    </radialGradient>
    <radialGradient id="rightPool" cx="50%" cy="30%" r="50%">
      <stop offset="0%" stop-color="#e8a838" stop-opacity="0.45"/>
      <stop offset="100%" stop-color="#0d1117" stop-opacity="0"/>
    </radialGradient>

    <!-- Lamp head glows -->
    <radialGradient id="leftGlow" cx="50%" cy="50%" r="50%">
      <stop offset="0%" stop-color="#fff8d0" stop-opacity="1"/>
      <stop offset="35%" stop-color="#e8a838" stop-opacity="0.6"/>
      <stop offset="100%" stop-color="#e8a838" stop-opacity="0"/>
    </radialGradient>
    <radialGradient id="rightGlow" cx="50%" cy="50%" r="50%">
      <stop offset="0%" stop-color="#fff8d0" stop-opacity="1"/>
      <stop offset="35%" stop-color="#e8a838" stop-opacity="0.6"/>
      <stop offset="100%" stop-color="#e8a838" stop-opacity="0"/>
    </radialGradient>

    <!-- Inner bright core -->
    <linearGradient id="leftCoreGrad" x1="432" y1="125" x2="390" y2="580" gradientUnits="userSpaceOnUse">
      <stop offset="0%" stop-color="#ffffff" stop-opacity="0.55"/>
      <stop offset="100%" stop-color="#ffffff" stop-opacity="0"/>
    </linearGradient>
    <linearGradient id="rightCoreGrad" x1="1008" y1="125" x2="1050" y2="580" gradientUnits="userSpaceOnUse">
      <stop offset="0%" stop-color="#ffffff" stop-opacity="0.55"/>
      <stop offset="100%" stop-color="#ffffff" stop-opacity="0"/>
    </linearGradient>

    <!-- Filters -->
    <filter id="beamBlur" x="-15%" y="-5%" width="130%" height="115%">
      <feGaussianBlur stdDeviation="14"/>
    </filter>
    <filter id="glowBlur" x="-100%" y="-100%" width="300%" height="300%">
      <feGaussianBlur stdDeviation="24"/>
    </filter>
    <filter id="coreBlur" x="-20%" y="-5%" width="140%" height="115%">
      <feGaussianBlur stdDeviation="5"/>
    </filter>
    <filter id="poolBlur" x="-20%" y="-20%" width="140%" height="140%">
      <feGaussianBlur stdDeviation="28"/>
    </filter>

  </defs>

  <!-- Background -->
  <rect width="1440" height="810" fill="url(#bgGrad)"/>

  <!-- ── LEFT BEAM ── -->
  <polygon
    points="432,125 -80,810 860,810"
    fill="url(#leftBeamGrad)"
    filter="url(#beamBlur)"
    opacity="1"
  />
  <polygon
    points="432,125 240,580 620,580"
    fill="url(#leftCoreGrad)"
    filter="url(#coreBlur)"
    opacity="0.9"
  />

  <!-- ── RIGHT BEAM ── -->
  <polygon
    points="1008,125 580,810 1520,810"
    fill="url(#rightBeamGrad)"
    filter="url(#beamBlur)"
    opacity="1"
  />
  <polygon
    points="1008,125 820,580 1200,580"
    fill="url(#rightCoreGrad)"
    filter="url(#coreBlur)"
    opacity="0.9"
  />

  <!-- ── GROUND POOLS ── -->
  <ellipse cx="390" cy="800" rx="360" ry="70" fill="url(#leftPool)" filter="url(#poolBlur)"/>
  <ellipse cx="1050" cy="800" rx="360" ry="70" fill="url(#rightPool)" filter="url(#poolBlur)"/>

  <!-- ── LAMP HARDWARE ── -->

  <!-- Pole -->
  <rect x="717" y="150" width="6" height="660" fill="#2a2f3a" rx="3"/>

  <!--
    Arm shape: rises from pole, arches up in the middle,
    then hooks downward at the end so the lamp overhangs.
    Cubic bezier to the peak, then a small downward hook via a second cubic.
  -->

  <!-- Left arm — arches up then hooks down to lamp -->
  <path
    d="M720,158 C665,118 540,100 448,100 C438,100 432,108 432,128"
    stroke="#2a2f3a" stroke-width="5" fill="none" stroke-linecap="round" stroke-linejoin="round"
  />

  <!-- Right arm — mirror -->
  <path
    d="M720,158 C775,118 900,100 992,100 C1002,100 1008,108 1008,128"
    stroke="#2a2f3a" stroke-width="5" fill="none" stroke-linecap="round" stroke-linejoin="round"
  />

  <!-- Left lamp head -->
  <rect x="408" y="122" width="48" height="14" rx="4" fill="#1e2430"/>
  <rect x="412" y="132" width="40" height="7" rx="2" fill="#161c27"/>

  <!-- Right lamp head -->
  <rect x="984" y="122" width="48" height="14" rx="4" fill="#1e2430"/>
  <rect x="988" y="132" width="40" height="7" rx="2" fill="#161c27"/>

  <!-- ── GLOWS ── -->
  <ellipse cx="432" cy="130" rx="80" ry="60" fill="url(#leftGlow)" filter="url(#glowBlur)" opacity="1"/>
  <ellipse cx="1008" cy="130" rx="80" ry="60" fill="url(#rightGlow)" filter="url(#glowBlur)" opacity="1"/>

  <!-- Lenses -->
  <ellipse cx="432" cy="136" rx="18" ry="6" fill="#fff8e0" opacity="1"/>
  <ellipse cx="1008" cy="136" rx="18" ry="6" fill="#fff8e0" opacity="1"/>

  <!-- Bottom fade -->
  <rect x="0" y="760" width="1440" height="50" fill="url(#bgGrad)" opacity="0.5"/>

</svg>
