<svg xmlns="http://www.w3.org/2000/svg" viewBox="0 0 1440 810" width="1440" height="810">
  <defs>

    <!-- Background gradient -->
    <linearGradient id="bgGrad" x1="0" y1="0" x2="0" y2="1">
      <stop offset="0%" stop-color="#04060a"/>
      <stop offset="100%" stop-color="#0d1117"/>
    </linearGradient>

    <!-- Left beam gradient — moved higher, brighter -->
    <linearGradient id="leftBeamGrad" x1="430" y1="160" x2="350" y2="810" gradientUnits="userSpaceOnUse">
      <stop offset="0%" stop-color="#ffe8b0" stop-opacity="0.85"/>
      <stop offset="40%" stop-color="#e8a838" stop-opacity="0.40"/>
      <stop offset="100%" stop-color="#0d1117" stop-opacity="0"/>
    </linearGradient>

    <!-- Right beam gradient -->
    <linearGradient id="rightBeamGrad" x1="1010" y1="160" x2="1090" y2="810" gradientUnits="userSpaceOnUse">
      <stop offset="0%" stop-color="#ffe8b0" stop-opacity="0.85"/>
      <stop offset="40%" stop-color="#e8a838" stop-opacity="0.40"/>
      <stop offset="100%" stop-color="#0d1117" stop-opacity="0"/>
    </linearGradient>

    <!-- Ground pools -->
    <radialGradient id="leftPool" cx="50%" cy="30%" r="50%">
      <stop offset="0%" stop-color="#e8a838" stop-opacity="0.45"/>
      <stop offset="100%" stop-color="#0d1117" stop-opacity="0"/>
    </radialGradient>
    <radialGradient id="rightPool" cx="50%" cy="30%" r="50%">
      <stop offset="0%" stop-color="#e8a838" stop-opacity="0.45"/>
      <stop offset="100%" stop-color="#0d1117" stop-opacity="0"/>
    </radialGradient>

    <!-- Lamp head glows -->
    <radialGradient id="leftGlow" cx="50%" cy="50%" r="50%">
      <stop offset="0%" stop-color="#fff8d0" stop-opacity="1"/>
      <stop offset="35%" stop-color="#e8a838" stop-opacity="0.6"/>
      <stop offset="100%" stop-color="#e8a838" stop-opacity="0"/>
    </radialGradient>
    <radialGradient id="rightGlow" cx="50%" cy="50%" r="50%">
      <stop offset="0%" stop-color="#fff8d0" stop-opacity="1"/>
      <stop offset="35%" stop-color="#e8a838" stop-opacity="0.6"/>
      <stop offset="100%" stop-color="#e8a838" stop-opacity="0"/>
    </radialGradient>

    <!-- Inner bright core -->
    <linearGradient id="leftCoreGrad" x1="430" y1="160" x2="390" y2="580" gradientUnits="userSpaceOnUse">
      <stop offset="0%" stop-color="#ffffff" stop-opacity="0.55"/>
      <stop offset="100%" stop-color="#ffffff" stop-opacity="0"/>
    </linearGradient>
    <linearGradient id="rightCoreGrad" x1="1010" y1="160" x2="1050" y2="580" gradientUnits="userSpaceOnUse">
      <stop offset="0%" stop-color="#ffffff" stop-opacity="0.55"/>
      <stop offset="100%" stop-color="#ffffff" stop-opacity="0"/>
    </linearGradient>

    <!-- Filters -->
    <filter id="beamBlur" x="-15%" y="-5%" width="130%" height="115%">
      <feGaussianBlur stdDeviation="14"/>
    </filter>
    <filter id="glowBlur" x="-100%" y="-100%" width="300%" height="300%">
      <feGaussianBlur stdDeviation="24"/>
    </filter>
    <filter id="coreBlur" x="-20%" y="-5%" width="140%" height="115%">
      <feGaussianBlur stdDeviation="5"/>
    </filter>
    <filter id="poolBlur" x="-20%" y="-20%" width="140%" height="140%">
      <feGaussianBlur stdDeviation="28"/>
    </filter>

  </defs>

  <!-- Background -->
  <rect width="1440" height="810" fill="url(#bgGrad)"/>

  <!-- ── LEFT BEAM ── -->
  <polygon
    points="430,162 -80,810 860,810"
    fill="url(#leftBeamGrad)"
    filter="url(#beamBlur)"
    opacity="1"
  />
  <polygon
    points="430,162 240,580 620,580"
    fill="url(#leftCoreGrad)"
    filter="url(#coreBlur)"
    opacity="0.9"
  />

  <!-- ── RIGHT BEAM ── -->
  <polygon
    points="1010,162 580,810 1520,810"
    fill="url(#rightBeamGrad)"
    filter="url(#beamBlur)"
    opacity="1"
  />
  <polygon
    points="1010,162 820,580 1200,580"
    fill="url(#rightCoreGrad)"
    filter="url(#coreBlur)"
    opacity="0.9"
  />

  <!-- ── GROUND POOLS ── -->
  <ellipse cx="390" cy="800" rx="360" ry="70" fill="url(#leftPool)" filter="url(#poolBlur)"/>
  <ellipse cx="1050" cy="800" rx="360" ry="70" fill="url(#rightPool)" filter="url(#poolBlur)"/>

  <!-- ── LAMP HARDWARE ── -->

  <!-- Pole -->
  <rect x="717" y="175" width="6" height="635" fill="#2a2f3a" rx="3"/>

  <!-- Left arm -->
  <path d="M720,185 Q600,165 432,160" stroke="#2a2f3a" stroke-width="5" fill="none" stroke-linecap="round"/>

  <!-- Right arm -->
  <path d="M720,185 Q840,165 1008,160" stroke="#2a2f3a" stroke-width="5" fill="none" stroke-linecap="round"/>

  <!-- Left lamp bracket -->
  <line x1="432" y1="160" x2="432" y2="175" stroke="#2a2f3a" stroke-width="4" stroke-linecap="round"/>

  <!-- Right lamp bracket -->
  <line x1="1008" y1="160" x2="1008" y2="175" stroke="#2a2f3a" stroke-width="4" stroke-linecap="round"/>

  <!-- Left lamp head -->
  <rect x="408" y="167" width="48" height="13" rx="4" fill="#1e2430"/>
  <rect x="412" y="176" width="40" height="7" rx="2" fill="#161c27"/>

  <!-- Right lamp head -->
  <rect x="984" y="167" width="48" height="13" rx="4" fill="#1e2430"/>
  <rect x="988" y="176" width="40" height="7" rx="2" fill="#161c27"/>

  <!-- ── GLOWS ── -->
  <ellipse cx="432" cy="174" rx="80" ry="60" fill="url(#leftGlow)" filter="url(#glowBlur)" opacity="1"/>
  <ellipse cx="1008" cy="174" rx="80" ry="60" fill="url(#rightGlow)" filter="url(#glowBlur)" opacity="1"/>

  <!-- Lenses -->
  <ellipse cx="432" cy="180" rx="18" ry="6" fill="#fff8e0" opacity="1"/>
  <ellipse cx="1008" cy="180" rx="18" ry="6" fill="#fff8e0" opacity="1"/>

  <!-- Bottom fade -->
  <rect x="0" y="760" width="1440" height="50" fill="url(#bgGrad)" opacity="0.5"/>

</svg>
